<mxfile host="app.diagrams.net" modified="2024-05-22T14:41:20.382Z" agent="Mozilla/5.0 (Windows NT 10.0; Win64; x64) AppleWebKit/537.36 (KHTML, like Gecko) Chrome/121.0.0.0 Safari/537.36" etag="gH4cPmKGipqbL2QXhWR3" version="24.4.6" type="device">
  <diagram name="Página-1" id="yovmghNNfFtqy-05NkIn">
    <mxGraphModel dx="1434" dy="782" grid="1" gridSize="10" guides="1" tooltips="1" connect="1" arrows="1" fold="1" page="1" pageScale="1" pageWidth="827" pageHeight="1169" math="0" shadow="0">
      <root>
        <mxCell id="0" />
        <mxCell id="1" parent="0" />
        <mxCell id="1Sxq55BMcCMkCKBK2sVI-22" style="edgeStyle=orthogonalEdgeStyle;rounded=0;orthogonalLoop=1;jettySize=auto;html=1;" edge="1" parent="1" source="1Sxq55BMcCMkCKBK2sVI-19" target="1Sxq55BMcCMkCKBK2sVI-23">
          <mxGeometry relative="1" as="geometry">
            <mxPoint x="375" y="120" as="targetPoint" />
          </mxGeometry>
        </mxCell>
        <mxCell id="1Sxq55BMcCMkCKBK2sVI-19" value="INICIO" style="ellipse;whiteSpace=wrap;html=1;" vertex="1" parent="1">
          <mxGeometry x="320" y="40" width="110" height="50" as="geometry" />
        </mxCell>
        <mxCell id="1Sxq55BMcCMkCKBK2sVI-24" style="edgeStyle=orthogonalEdgeStyle;rounded=0;orthogonalLoop=1;jettySize=auto;html=1;entryX=0.586;entryY=-0.15;entryDx=0;entryDy=0;entryPerimeter=0;" edge="1" parent="1" source="1Sxq55BMcCMkCKBK2sVI-23" target="1Sxq55BMcCMkCKBK2sVI-25">
          <mxGeometry relative="1" as="geometry">
            <mxPoint x="240" y="190" as="targetPoint" />
          </mxGeometry>
        </mxCell>
        <mxCell id="1Sxq55BMcCMkCKBK2sVI-31" style="edgeStyle=orthogonalEdgeStyle;rounded=0;orthogonalLoop=1;jettySize=auto;html=1;" edge="1" parent="1" source="1Sxq55BMcCMkCKBK2sVI-23" target="1Sxq55BMcCMkCKBK2sVI-32">
          <mxGeometry relative="1" as="geometry">
            <mxPoint x="520" y="200" as="targetPoint" />
          </mxGeometry>
        </mxCell>
        <mxCell id="1Sxq55BMcCMkCKBK2sVI-23" value="Listar Cliente" style="rounded=0;whiteSpace=wrap;html=1;" vertex="1" parent="1">
          <mxGeometry x="315" y="120" width="120" height="40" as="geometry" />
        </mxCell>
        <mxCell id="1Sxq55BMcCMkCKBK2sVI-37" style="edgeStyle=orthogonalEdgeStyle;rounded=0;orthogonalLoop=1;jettySize=auto;html=1;" edge="1" parent="1" source="1Sxq55BMcCMkCKBK2sVI-25">
          <mxGeometry relative="1" as="geometry">
            <mxPoint x="235" y="280" as="targetPoint" />
          </mxGeometry>
        </mxCell>
        <mxCell id="1Sxq55BMcCMkCKBK2sVI-25" value="Endereço" style="rounded=0;whiteSpace=wrap;html=1;" vertex="1" parent="1">
          <mxGeometry x="200" y="200" width="70" height="40" as="geometry" />
        </mxCell>
        <mxCell id="1Sxq55BMcCMkCKBK2sVI-26" value="" style="endArrow=classic;html=1;rounded=0;exitX=0;exitY=1;exitDx=0;exitDy=0;" edge="1" parent="1" source="1Sxq55BMcCMkCKBK2sVI-23">
          <mxGeometry width="50" height="50" relative="1" as="geometry">
            <mxPoint x="390" y="330" as="sourcePoint" />
            <mxPoint x="315" y="200" as="targetPoint" />
          </mxGeometry>
        </mxCell>
        <mxCell id="1Sxq55BMcCMkCKBK2sVI-38" style="edgeStyle=orthogonalEdgeStyle;rounded=0;orthogonalLoop=1;jettySize=auto;html=1;" edge="1" parent="1" source="1Sxq55BMcCMkCKBK2sVI-27">
          <mxGeometry relative="1" as="geometry">
            <mxPoint x="320" y="280" as="targetPoint" />
          </mxGeometry>
        </mxCell>
        <mxCell id="1Sxq55BMcCMkCKBK2sVI-27" value="Nome" style="rounded=0;whiteSpace=wrap;html=1;" vertex="1" parent="1">
          <mxGeometry x="280" y="200" width="80" height="40" as="geometry" />
        </mxCell>
        <mxCell id="1Sxq55BMcCMkCKBK2sVI-39" style="edgeStyle=orthogonalEdgeStyle;rounded=0;orthogonalLoop=1;jettySize=auto;html=1;" edge="1" parent="1" source="1Sxq55BMcCMkCKBK2sVI-28">
          <mxGeometry relative="1" as="geometry">
            <mxPoint x="440" y="280" as="targetPoint" />
          </mxGeometry>
        </mxCell>
        <mxCell id="1Sxq55BMcCMkCKBK2sVI-28" value="Telefone" style="rounded=0;whiteSpace=wrap;html=1;" vertex="1" parent="1">
          <mxGeometry x="400" y="200" width="80" height="40" as="geometry" />
        </mxCell>
        <mxCell id="1Sxq55BMcCMkCKBK2sVI-30" value="" style="endArrow=classic;html=1;rounded=0;exitX=1;exitY=1;exitDx=0;exitDy=0;" edge="1" parent="1" source="1Sxq55BMcCMkCKBK2sVI-23">
          <mxGeometry width="50" height="50" relative="1" as="geometry">
            <mxPoint x="390" y="330" as="sourcePoint" />
            <mxPoint x="435" y="200" as="targetPoint" />
          </mxGeometry>
        </mxCell>
        <mxCell id="1Sxq55BMcCMkCKBK2sVI-42" style="edgeStyle=orthogonalEdgeStyle;rounded=0;orthogonalLoop=1;jettySize=auto;html=1;" edge="1" parent="1" source="1Sxq55BMcCMkCKBK2sVI-32">
          <mxGeometry relative="1" as="geometry">
            <mxPoint x="535" y="280" as="targetPoint" />
          </mxGeometry>
        </mxCell>
        <mxCell id="1Sxq55BMcCMkCKBK2sVI-32" value="Codigo" style="rounded=0;whiteSpace=wrap;html=1;" vertex="1" parent="1">
          <mxGeometry x="500" y="200" width="70" height="40" as="geometry" />
        </mxCell>
        <mxCell id="1Sxq55BMcCMkCKBK2sVI-47" style="edgeStyle=orthogonalEdgeStyle;rounded=0;orthogonalLoop=1;jettySize=auto;html=1;" edge="1" parent="1" source="1Sxq55BMcCMkCKBK2sVI-43">
          <mxGeometry relative="1" as="geometry">
            <mxPoint x="235" y="410" as="targetPoint" />
          </mxGeometry>
        </mxCell>
        <mxCell id="1Sxq55BMcCMkCKBK2sVI-60" style="edgeStyle=orthogonalEdgeStyle;rounded=0;orthogonalLoop=1;jettySize=auto;html=1;" edge="1" parent="1" source="1Sxq55BMcCMkCKBK2sVI-43">
          <mxGeometry relative="1" as="geometry">
            <mxPoint x="130" y="400" as="targetPoint" />
          </mxGeometry>
        </mxCell>
        <mxCell id="1Sxq55BMcCMkCKBK2sVI-43" value="Valido?" style="rhombus;whiteSpace=wrap;html=1;" vertex="1" parent="1">
          <mxGeometry x="195" y="280" width="80" height="80" as="geometry" />
        </mxCell>
        <mxCell id="1Sxq55BMcCMkCKBK2sVI-48" style="edgeStyle=orthogonalEdgeStyle;rounded=0;orthogonalLoop=1;jettySize=auto;html=1;" edge="1" parent="1" source="1Sxq55BMcCMkCKBK2sVI-44">
          <mxGeometry relative="1" as="geometry">
            <mxPoint x="320" y="410" as="targetPoint" />
          </mxGeometry>
        </mxCell>
        <mxCell id="1Sxq55BMcCMkCKBK2sVI-56" style="edgeStyle=orthogonalEdgeStyle;rounded=0;orthogonalLoop=1;jettySize=auto;html=1;" edge="1" parent="1" source="1Sxq55BMcCMkCKBK2sVI-44">
          <mxGeometry relative="1" as="geometry">
            <mxPoint x="380" y="430" as="targetPoint" />
          </mxGeometry>
        </mxCell>
        <mxCell id="1Sxq55BMcCMkCKBK2sVI-44" value="Valido?" style="rhombus;whiteSpace=wrap;html=1;" vertex="1" parent="1">
          <mxGeometry x="280" y="280" width="80" height="80" as="geometry" />
        </mxCell>
        <mxCell id="1Sxq55BMcCMkCKBK2sVI-49" style="edgeStyle=orthogonalEdgeStyle;rounded=0;orthogonalLoop=1;jettySize=auto;html=1;" edge="1" parent="1" source="1Sxq55BMcCMkCKBK2sVI-45">
          <mxGeometry relative="1" as="geometry">
            <mxPoint x="440" y="410" as="targetPoint" />
          </mxGeometry>
        </mxCell>
        <mxCell id="1Sxq55BMcCMkCKBK2sVI-55" style="edgeStyle=orthogonalEdgeStyle;rounded=0;orthogonalLoop=1;jettySize=auto;html=1;" edge="1" parent="1" source="1Sxq55BMcCMkCKBK2sVI-45">
          <mxGeometry relative="1" as="geometry">
            <mxPoint x="380" y="430" as="targetPoint" />
          </mxGeometry>
        </mxCell>
        <mxCell id="1Sxq55BMcCMkCKBK2sVI-45" value="Valido?" style="rhombus;whiteSpace=wrap;html=1;" vertex="1" parent="1">
          <mxGeometry x="400" y="280" width="80" height="80" as="geometry" />
        </mxCell>
        <mxCell id="1Sxq55BMcCMkCKBK2sVI-50" style="edgeStyle=orthogonalEdgeStyle;rounded=0;orthogonalLoop=1;jettySize=auto;html=1;" edge="1" parent="1" source="1Sxq55BMcCMkCKBK2sVI-46">
          <mxGeometry relative="1" as="geometry">
            <mxPoint x="535" y="410" as="targetPoint" />
          </mxGeometry>
        </mxCell>
        <mxCell id="1Sxq55BMcCMkCKBK2sVI-58" style="edgeStyle=orthogonalEdgeStyle;rounded=0;orthogonalLoop=1;jettySize=auto;html=1;" edge="1" parent="1" source="1Sxq55BMcCMkCKBK2sVI-46">
          <mxGeometry relative="1" as="geometry">
            <mxPoint x="640" y="400" as="targetPoint" />
          </mxGeometry>
        </mxCell>
        <mxCell id="1Sxq55BMcCMkCKBK2sVI-46" value="&#xa;&lt;span style=&quot;color: rgb(0, 0, 0); font-family: Helvetica; font-size: 12px; font-style: normal; font-variant-ligatures: normal; font-variant-caps: normal; font-weight: 400; letter-spacing: normal; orphans: 2; text-align: center; text-indent: 0px; text-transform: none; widows: 2; word-spacing: 0px; -webkit-text-stroke-width: 0px; white-space: normal; background-color: rgb(251, 251, 251); text-decoration-thickness: initial; text-decoration-style: initial; text-decoration-color: initial; display: inline !important; float: none;&quot;&gt;Valido?&lt;/span&gt;&#xa;&#xa;" style="rhombus;whiteSpace=wrap;html=1;" vertex="1" parent="1">
          <mxGeometry x="495" y="280" width="80" height="80" as="geometry" />
        </mxCell>
        <mxCell id="1Sxq55BMcCMkCKBK2sVI-51" value="Sim" style="text;html=1;align=center;verticalAlign=middle;resizable=0;points=[];autosize=1;strokeColor=none;fillColor=none;" vertex="1" parent="1">
          <mxGeometry x="230" y="358" width="40" height="30" as="geometry" />
        </mxCell>
        <mxCell id="1Sxq55BMcCMkCKBK2sVI-52" value="Sim" style="text;html=1;align=center;verticalAlign=middle;resizable=0;points=[];autosize=1;strokeColor=none;fillColor=none;" vertex="1" parent="1">
          <mxGeometry x="320" y="358" width="40" height="30" as="geometry" />
        </mxCell>
        <mxCell id="1Sxq55BMcCMkCKBK2sVI-53" value="Sim" style="text;html=1;align=center;verticalAlign=middle;resizable=0;points=[];autosize=1;strokeColor=none;fillColor=none;" vertex="1" parent="1">
          <mxGeometry x="440" y="358" width="40" height="30" as="geometry" />
        </mxCell>
        <mxCell id="1Sxq55BMcCMkCKBK2sVI-54" value="Sim" style="text;html=1;align=center;verticalAlign=middle;resizable=0;points=[];autosize=1;strokeColor=none;fillColor=none;" vertex="1" parent="1">
          <mxGeometry x="530" y="358" width="40" height="30" as="geometry" />
        </mxCell>
        <mxCell id="1Sxq55BMcCMkCKBK2sVI-57" value="Não" style="text;html=1;align=center;verticalAlign=middle;resizable=0;points=[];autosize=1;strokeColor=none;fillColor=none;" vertex="1" parent="1">
          <mxGeometry x="355" y="298" width="50" height="30" as="geometry" />
        </mxCell>
        <mxCell id="1Sxq55BMcCMkCKBK2sVI-59" value="Não" style="text;html=1;align=center;verticalAlign=middle;resizable=0;points=[];autosize=1;strokeColor=none;fillColor=none;" vertex="1" parent="1">
          <mxGeometry x="585" y="298" width="50" height="30" as="geometry" />
        </mxCell>
        <mxCell id="1Sxq55BMcCMkCKBK2sVI-61" value="Não" style="text;html=1;align=center;verticalAlign=middle;resizable=0;points=[];autosize=1;strokeColor=none;fillColor=none;" vertex="1" parent="1">
          <mxGeometry x="135" y="298" width="50" height="30" as="geometry" />
        </mxCell>
      </root>
    </mxGraphModel>
  </diagram>
</mxfile>
